STARTFONT 2.1
FONT -FontForge-Symbol-Regular-R-Normal--24-240-72-72-P-120-MacRoman-0
SIZE 24 72 72
FONTBOUNDINGBOX 255 24 0 -6
COMMENT "Generated by fontforge, http://fontforge.sourceforge.net"
STARTPROPERTIES 30
FOUNDRY "FontForge"
FAMILY_NAME "Symbol"
WEIGHT_NAME "Regular"
SLANT "R"
SETWIDTH_NAME "Normal"
ADD_STYLE_NAME ""
PIXEL_SIZE 24
POINT_SIZE 240
RESOLUTION_X 72
RESOLUTION_Y 72
SPACING "P"
AVERAGE_WIDTH 120
CHARSET_REGISTRY "MacRoman"
CHARSET_ENCODING "0"
FONTNAME_REGISTRY ""
CHARSET_COLLECTIONS "MacRoman"
FONT_NAME "Symbol"
FACE_NAME "Symbol"
FONT_VERSION "001.000"
FONT_ASCENT 18
FONT_DESCENT 6
UNDERLINE_POSITION -2
UNDERLINE_THICKNESS 2
X_HEIGHT 13
CAP_HEIGHT 11
RAW_ASCENT 800
RAW_DESCENT 200
NORM_SPACE 5
AVG_LOWERCASE_WIDTH 1064
AVG_UPPERCASE_WIDTH 416
ENDPROPERTIES
CHARS 190
STARTCHAR space
ENCODING 32
SWIDTH 250 0
DWIDTH 5 0
BBX 1 1 0 -6
BITMAP
00
ENDCHAR
STARTCHAR exclam
ENCODING 33
SWIDTH 333 0
DWIDTH 6 0
BBX 2 12 2 0
BITMAP
C0
C0
C0
C0
C0
C0
C0
C0
00
00
C0
C0
ENDCHAR
STARTCHAR quotedbl
ENCODING 34
SWIDTH 713 0
DWIDTH 13 0
BBX 11 12 1 0
BITMAP
8020
8020
4040
7FC0
2080
2080
1100
1100
0A00
0A00
0400
0400
ENDCHAR
STARTCHAR numbersign
ENCODING 35
SWIDTH 500 0
DWIDTH 9 0
BBX 8 12 0 0
BITMAP
12
12
12
7F
24
24
24
24
FE
48
48
48
ENDCHAR
STARTCHAR dollar
ENCODING 36
SWIDTH 549 0
DWIDTH 10 0
BBX 8 12 1 0
BITMAP
FF
01
01
01
01
FF
01
01
01
01
01
FF
ENDCHAR
STARTCHAR percent
ENCODING 37
SWIDTH 833 0
DWIDTH 15 0
BBX 13 12 1 0
BITMAP
3820
67E0
C4C0
C580
C900
7300
0670
04C8
0D88
1988
1190
30E0
ENDCHAR
STARTCHAR ampersand
ENCODING 38
SWIDTH 778 0
DWIDTH 14 0
BBX 12 12 1 0
BITMAP
0E00
1900
1900
1A00
1CF0
3C60
6C40
C680
C700
C310
65F0
38E0
ENDCHAR
STARTCHAR quotesingle
ENCODING 39
SWIDTH 439 0
DWIDTH 8 0
BBX 7 9 0 0
BITMAP
F0
0C
04
06
7E
06
04
0C
F0
ENDCHAR
STARTCHAR parenleft
ENCODING 40
SWIDTH 333 0
DWIDTH 6 0
BBX 4 16 1 -4
BITMAP
10
20
20
40
40
C0
C0
C0
C0
C0
C0
40
40
20
20
10
ENDCHAR
STARTCHAR parenright
ENCODING 41
SWIDTH 333 0
DWIDTH 6 0
BBX 4 16 1 -4
BITMAP
80
40
40
20
20
30
30
30
30
30
30
20
20
40
40
80
ENDCHAR
STARTCHAR asterisk
ENCODING 42
SWIDTH 500 0
DWIDTH 9 0
BBX 7 8 1 2
BITMAP
10
92
54
38
38
54
92
10
ENDCHAR
STARTCHAR plus
ENCODING 43
SWIDTH 549 0
DWIDTH 10 0
BBX 9 9 0 0
BITMAP
0800
0800
0800
0800
FF80
0800
0800
0800
0800
ENDCHAR
STARTCHAR comma
ENCODING 44
SWIDTH 250 0
DWIDTH 6 0
BBX 2 5 2 -3
BITMAP
C0
C0
40
40
80
ENDCHAR
STARTCHAR hyphen
ENCODING 45
SWIDTH 549 0
DWIDTH 10 0
BBX 9 1 0 4
BITMAP
FF80
ENDCHAR
STARTCHAR period
ENCODING 46
SWIDTH 250 0
DWIDTH 6 0
BBX 2 2 2 0
BITMAP
C0
C0
ENDCHAR
STARTCHAR slash
ENCODING 47
SWIDTH 278 0
DWIDTH 5 0
BBX 4 12 0 0
BITMAP
10
10
10
20
20
20
40
40
40
80
80
80
ENDCHAR
STARTCHAR zero
ENCODING 48
SWIDTH 500 0
DWIDTH 9 0
BBX 8 12 0 0
BITMAP
3C
66
42
C3
C3
C3
C3
C3
C3
42
66
3C
ENDCHAR
STARTCHAR one
ENCODING 49
SWIDTH 500 0
DWIDTH 9 0
BBX 6 12 1 0
BITMAP
10
30
70
B0
30
30
30
30
30
30
30
FC
ENDCHAR
STARTCHAR two
ENCODING 50
SWIDTH 500 0
DWIDTH 9 0
BBX 8 12 0 0
BITMAP
3C
7E
87
03
03
02
04
08
10
21
7F
FE
ENDCHAR
STARTCHAR three
ENCODING 51
SWIDTH 500 0
DWIDTH 9 0
BBX 8 12 0 0
BITMAP
7C
C6
86
06
0C
1E
07
03
03
C3
E6
7C
ENDCHAR
STARTCHAR four
ENCODING 52
SWIDTH 500 0
DWIDTH 9 0
BBX 8 12 0 0
BITMAP
02
06
0E
1E
36
66
C6
FF
06
06
06
06
ENDCHAR
STARTCHAR five
ENCODING 53
SWIDTH 500 0
DWIDTH 9 0
BBX 8 12 0 0
BITMAP
3F
3E
60
78
FC
06
02
02
02
C2
E4
78
ENDCHAR
STARTCHAR six
ENCODING 54
SWIDTH 500 0
DWIDTH 9 0
BBX 8 12 0 0
BITMAP
06
18
30
60
7C
E6
C3
C3
C3
C3
66
3C
ENDCHAR
STARTCHAR seven
ENCODING 55
SWIDTH 500 0
DWIDTH 9 0
BBX 8 12 0 0
BITMAP
7F
7F
81
01
02
02
04
04
08
08
10
10
ENDCHAR
STARTCHAR eight
ENCODING 56
SWIDTH 500 0
DWIDTH 9 0
BBX 7 12 1 0
BITMAP
7C
C6
C6
C6
6C
38
7C
CE
C6
C6
C6
7C
ENDCHAR
STARTCHAR nine
ENCODING 57
SWIDTH 500 0
DWIDTH 9 0
BBX 8 12 0 0
BITMAP
3C
66
C3
C3
C3
C3
67
3E
06
0C
18
60
ENDCHAR
STARTCHAR colon
ENCODING 58
SWIDTH 278 0
DWIDTH 5 0
BBX 2 8 1 0
BITMAP
C0
C0
00
00
00
00
C0
C0
ENDCHAR
STARTCHAR semicolon
ENCODING 59
SWIDTH 278 0
DWIDTH 5 0
BBX 2 11 2 -3
BITMAP
C0
C0
00
00
00
00
C0
C0
40
40
80
ENDCHAR
STARTCHAR less
ENCODING 60
SWIDTH 549 0
DWIDTH 10 0
BBX 8 7 0 1
BITMAP
03
0C
30
C0
30
0C
03
ENDCHAR
STARTCHAR equal
ENCODING 61
SWIDTH 549 0
DWIDTH 10 0
BBX 9 4 0 3
BITMAP
FF80
0000
0000
FF80
ENDCHAR
STARTCHAR greater
ENCODING 62
SWIDTH 549 0
DWIDTH 10 0
BBX 8 7 1 1
BITMAP
C0
30
0C
03
0C
30
C0
ENDCHAR
STARTCHAR question
ENCODING 63
SWIDTH 444 0
DWIDTH 8 0
BBX 6 12 1 0
BITMAP
78
CC
CC
0C
0C
18
10
20
20
00
30
30
ENDCHAR
STARTCHAR at
ENCODING 64
SWIDTH 549 0
DWIDTH 10 0
BBX 8 8 1 0
BITMAP
71
8E
00
00
FF
00
00
FF
ENDCHAR
STARTCHAR A
ENCODING 65
SWIDTH 722 0
DWIDTH 13 0
BBX 12 12 0 0
BITMAP
0200
0200
0700
0700
0980
0980
10C0
1FC0
20C0
2060
4060
E0F0
ENDCHAR
STARTCHAR B
ENCODING 66
SWIDTH 667 0
DWIDTH 12 0
BBX 10 12 1 0
BITMAP
FF00
6380
6180
6180
6180
7F00
6180
60C0
60C0
60C0
6180
FF00
ENDCHAR
STARTCHAR C
ENCODING 67
SWIDTH 722 0
DWIDTH 13 0
BBX 10 12 1 0
BITMAP
F1C0
6080
3100
3300
1A00
0C00
0C00
1600
3300
2300
4180
E3C0
ENDCHAR
STARTCHAR D
ENCODING 68
SWIDTH 612 0
DWIDTH 11 0
BBX 11 12 0 0
BITMAP
0400
0400
0E00
0E00
0B00
1300
1380
2180
2180
40C0
40C0
FFE0
ENDCHAR
STARTCHAR E
ENCODING 69
SWIDTH 611 0
DWIDTH 12 0
BBX 9 12 1 0
BITMAP
FF80
6180
6080
6000
6200
7E00
6200
6000
6000
6080
6180
FF80
ENDCHAR
STARTCHAR F
ENCODING 70
SWIDTH 763 0
DWIDTH 14 0
BBX 12 12 1 0
BITMAP
0F00
0600
1F80
6660
C630
C630
C630
C630
6660
1F80
0600
0F00
ENDCHAR
STARTCHAR G
ENCODING 71
SWIDTH 603 0
DWIDTH 11 0
BBX 9 12 1 0
BITMAP
FF80
6080
6000
6000
6000
6000
6000
6000
6000
6000
6000
F000
ENDCHAR
STARTCHAR H
ENCODING 72
SWIDTH 722 0
DWIDTH 14 0
BBX 11 12 1 0
BITMAP
F1E0
60C0
60C0
60C0
60C0
7FC0
60C0
60C0
60C0
60C0
60C0
F1E0
ENDCHAR
STARTCHAR I
ENCODING 73
SWIDTH 333 0
DWIDTH 6 0
BBX 4 12 1 0
BITMAP
F0
60
60
60
60
60
60
60
60
60
60
F0
ENDCHAR
STARTCHAR J
ENCODING 74
SWIDTH 631 0
DWIDTH 11 0
BBX 11 13 0 0
BITMAP
0700
0880
08C0
0CC0
66C0
F3C0
30C0
30E0
30C0
30C0
30C0
1980
0F00
ENDCHAR
STARTCHAR K
ENCODING 75
SWIDTH 722 0
DWIDTH 13 0
BBX 12 12 0 0
BITMAP
FDF0
3080
3100
3200
3400
3800
3C00
3600
3300
3180
30C0
FDF0
ENDCHAR
STARTCHAR L
ENCODING 76
SWIDTH 686 0
DWIDTH 13 0
BBX 12 12 0 0
BITMAP
0200
0200
0700
0700
0980
0980
1080
10C0
2040
2060
4060
F1F0
ENDCHAR
STARTCHAR M
ENCODING 77
SWIDTH 889 0
DWIDTH 17 0
BBX 16 12 0 0
BITMAP
E00F
301C
381C
382C
2C2C
2C4C
264C
264C
238C
238C
210C
F93F
ENDCHAR
STARTCHAR N
ENCODING 78
SWIDTH 722 0
DWIDTH 14 0
BBX 13 12 1 0
BITMAP
E0F8
3020
3820
2820
2C20
2620
2320
2120
21A0
20E0
2060
F820
ENDCHAR
STARTCHAR O
ENCODING 79
SWIDTH 722 0
DWIDTH 14 0
BBX 12 12 1 0
BITMAP
0F00
30C0
6060
4020
C030
C030
C030
C030
4020
6060
30C0
0F00
ENDCHAR
STARTCHAR P
ENCODING 80
SWIDTH 768 0
DWIDTH 14 0
BBX 13 12 0 0
BITMAP
FFF8
3060
3060
3060
3060
3060
3060
3060
3060
3060
3060
FDF8
ENDCHAR
STARTCHAR Q
ENCODING 81
SWIDTH 741 0
DWIDTH 14 0
BBX 12 12 1 0
BITMAP
0F00
30C0
6060
4020
D0B0
DFB0
DFB0
D0B0
4020
6060
30C0
0F00
ENDCHAR
STARTCHAR R
ENCODING 82
SWIDTH 556 0
DWIDTH 10 0
BBX 9 12 0 0
BITMAP
FF00
3180
3180
3180
3180
3F00
3000
3000
3000
3000
3000
FC00
ENDCHAR
STARTCHAR S
ENCODING 83
SWIDTH 592 0
DWIDTH 11 0
BBX 10 12 0 0
BITMAP
FFC0
6040
3040
1800
0C00
0600
0400
0800
1000
2040
7FC0
FFC0
ENDCHAR
STARTCHAR T
ENCODING 84
SWIDTH 611 0
DWIDTH 11 0
BBX 10 12 0 0
BITMAP
FFC0
CCC0
8C40
0C00
0C00
0C00
0C00
0C00
0C00
0C00
0C00
3F00
ENDCHAR
STARTCHAR U
ENCODING 85
SWIDTH 690 0
DWIDTH 13 0
BBX 10 12 1 0
BITMAP
F1C0
6080
3100
3100
1A00
1E00
0C00
0C00
0C00
0C00
0C00
3F00
ENDCHAR
STARTCHAR V
ENCODING 86
SWIDTH 439 0
DWIDTH 8 0
BBX 7 13 0 -4
BITMAP
1E
7E
C0
80
80
80
C0
7C
1E
02
02
1E
1C
ENDCHAR
STARTCHAR W
ENCODING 87
SWIDTH 768 0
DWIDTH 14 0
BBX 12 12 1 0
BITMAP
1F80
70E0
6060
C030
C030
C030
6060
2040
1080
9990
F9F0
F9F0
ENDCHAR
STARTCHAR X
ENCODING 88
SWIDTH 645 0
DWIDTH 12 0
BBX 10 12 1 0
BITMAP
FFC0
FFC0
8040
0000
2100
3F00
3F00
2100
8040
8040
FFC0
FFC0
ENDCHAR
STARTCHAR Y
ENCODING 89
SWIDTH 795 0
DWIDTH 15 0
BBX 12 12 1 0
BITMAP
9F90
4620
4620
6660
6660
36C0
1F80
0600
0600
0600
0600
1F80
ENDCHAR
STARTCHAR Z
ENCODING 90
SWIDTH 611 0
DWIDTH 12 0
BBX 10 12 1 0
BITMAP
FFC0
C180
8300
0300
0600
0C00
0C00
1800
3000
3040
60C0
FFC0
ENDCHAR
STARTCHAR bracketleft
ENCODING 91
SWIDTH 333 0
DWIDTH 6 0
BBX 4 16 1 -4
BITMAP
F0
80
80
80
80
80
80
80
80
80
80
80
80
80
80
F0
ENDCHAR
STARTCHAR backslash
ENCODING 92
SWIDTH 863 0
DWIDTH 16 0
BBX 10 8 3 0
BITMAP
0C00
0C00
0000
0000
0000
0000
C0C0
C0C0
ENDCHAR
STARTCHAR bracketright
ENCODING 93
SWIDTH 333 0
DWIDTH 6 0
BBX 4 16 0 -4
BITMAP
F0
10
10
10
10
10
10
10
10
10
10
10
10
10
10
F0
ENDCHAR
STARTCHAR asciicircum
ENCODING 94
SWIDTH 658 0
DWIDTH 12 0
BBX 11 12 0 0
BITMAP
0400
0400
0400
0400
0400
0400
0400
0400
0400
0400
0400
FFE0
ENDCHAR
STARTCHAR underscore
ENCODING 95
SWIDTH 500 0
DWIDTH 9 0
BBX 9 1 0 -4
BITMAP
FF80
ENDCHAR
STARTCHAR grave
ENCODING 96
SWIDTH 500 0
DWIDTH 10 0
BBX 10 1 0 13
BITMAP
FFC0
ENDCHAR
STARTCHAR a
ENCODING 97
SWIDTH 631 0
DWIDTH 12 0
BBX 11 9 0 0
BITMAP
38C0
64C0
C280
C380
C100
C300
C280
64A0
3840
ENDCHAR
STARTCHAR b
ENCODING 98
SWIDTH 549 0
DWIDTH 10 0
BBX 8 18 1 -4
BITMAP
38
44
C6
C6
C6
C4
D8
C6
C3
C3
C3
C3
E6
DC
C0
C0
C0
C0
ENDCHAR
STARTCHAR c
ENCODING 99
SWIDTH 549 0
DWIDTH 10 0
BBX 10 12 0 -3
BITMAP
6300
9300
1600
1600
0C00
0C00
1800
1400
3400
3200
6240
6180
ENDCHAR
STARTCHAR d
ENCODING 100
SWIDTH 494 0
DWIDTH 9 0
BBX 7 13 1 0
BITMAP
3C
46
62
30
18
3C
66
C2
C2
C2
C2
64
38
ENDCHAR
STARTCHAR e
ENCODING 101
SWIDTH 439 0
DWIDTH 8 0
BBX 6 9 1 0
BITMAP
78
CC
C0
C0
70
C0
C0
C4
78
ENDCHAR
STARTCHAR f
ENCODING 102
SWIDTH 521 0
DWIDTH 10 0
BBX 7 14 1 -3
BITMAP
10
10
38
54
D6
D6
D6
D6
D6
54
38
10
10
10
ENDCHAR
STARTCHAR g
ENCODING 103
SWIDTH 411 0
DWIDTH 8 0
BBX 7 12 0 -4
BITMAP
C2
E2
24
14
14
08
08
08
18
18
18
10
ENDCHAR
STARTCHAR h
ENCODING 104
SWIDTH 603 0
DWIDTH 11 0
BBX 9 13 0 -4
BITMAP
6700
B980
3180
3180
3180
3180
3180
3180
3180
0180
0180
0180
0180
ENDCHAR
STARTCHAR i
ENCODING 105
SWIDTH 329 0
DWIDTH 6 0
BBX 5 9 0 0
BITMAP
60
E0
60
60
60
60
60
68
30
ENDCHAR
STARTCHAR j
ENCODING 106
SWIDTH 603 0
DWIDTH 11 0
BBX 10 13 0 -4
BITMAP
0700
2F80
49C0
C8C0
C8C0
C8C0
C880
6980
3E00
0800
0800
0800
0800
ENDCHAR
STARTCHAR k
ENCODING 107
SWIDTH 549 0
DWIDTH 10 0
BBX 9 9 0 0
BITMAP
6180
E780
2C00
3000
3800
2C00
2600
2300
2380
ENDCHAR
STARTCHAR l
ENCODING 108
SWIDTH 549 0
DWIDTH 10 0
BBX 9 13 0 0
BITMAP
7000
9800
1800
1800
1800
3800
3800
3800
6800
6800
C480
C780
C300
ENDCHAR
STARTCHAR m
ENCODING 109
SWIDTH 576 0
DWIDTH 11 0
BBX 9 13 1 -4
BITMAP
C600
C600
C600
C600
C600
C600
C680
C780
FB00
C000
C000
C000
C000
ENDCHAR
STARTCHAR n
ENCODING 110
SWIDTH 521 0
DWIDTH 10 0
BBX 9 9 0 0
BITMAP
C300
C180
6180
6100
3300
3200
1C00
1C00
0800
ENDCHAR
STARTCHAR o
ENCODING 111
SWIDTH 549 0
DWIDTH 11 0
BBX 8 9 1 0
BITMAP
3C
66
C3
C3
C3
C3
C3
66
3C
ENDCHAR
STARTCHAR p
ENCODING 112
SWIDTH 549 0
DWIDTH 10 0
BBX 9 9 0 0
BITMAP
7F00
FF00
A400
2400
2400
6400
6680
E780
C300
ENDCHAR
STARTCHAR q
ENCODING 113
SWIDTH 521 0
DWIDTH 10 0
BBX 8 13 1 0
BITMAP
3C
66
42
C3
C3
C3
FF
C3
C3
C3
42
66
3C
ENDCHAR
STARTCHAR r
ENCODING 114
SWIDTH 549 0
DWIDTH 10 0
BBX 8 13 1 -4
BITMAP
1C
26
43
C3
C3
C3
C2
E6
DC
C0
C0
C0
C0
ENDCHAR
STARTCHAR s
ENCODING 115
SWIDTH 603 0
DWIDTH 11 0
BBX 10 9 0 0
BITMAP
1FC0
7FC0
6300
C180
C180
C180
4100
6300
1C00
ENDCHAR
STARTCHAR t
ENCODING 116
SWIDTH 439 0
DWIDTH 8 0
BBX 7 9 0 0
BITMAP
3E
7E
D0
90
10
10
12
1E
0C
ENDCHAR
STARTCHAR u
ENCODING 117
SWIDTH 576 0
DWIDTH 11 0
BBX 9 9 0 0
BITMAP
3100
7880
9880
1880
1880
1880
1880
1900
0E00
ENDCHAR
STARTCHAR v
ENCODING 118
SWIDTH 713 0
DWIDTH 13 0
BBX 12 10 0 0
BITMAP
7FF0
DFD0
B060
6030
6230
6230
6230
6230
3560
18C0
ENDCHAR
STARTCHAR w
ENCODING 119
SWIDTH 686 0
DWIDTH 12 0
BBX 11 9 0 0
BITMAP
1100
60C0
4040
C460
C460
C460
C460
6AC0
3180
ENDCHAR
STARTCHAR x
ENCODING 120
SWIDTH 493 0
DWIDTH 9 0
BBX 8 18 0 -4
BITMAP
40
5C
38
40
40
2E
3C
60
C0
C0
C0
E0
7E
3F
01
01
0F
0E
ENDCHAR
STARTCHAR y
ENCODING 121
SWIDTH 686 0
DWIDTH 12 0
BBX 11 13 0 -4
BITMAP
8420
4440
64C0
64C0
64C0
64C0
64C0
3580
1F00
0400
0400
0400
0400
ENDCHAR
STARTCHAR z
ENCODING 122
SWIDTH 494 0
DWIDTH 9 0
BBX 7 18 1 -4
BITMAP
40
4E
3C
38
40
40
80
80
80
80
80
C0
70
3C
02
02
0E
1C
ENDCHAR
STARTCHAR braceleft
ENCODING 123
SWIDTH 480 0
DWIDTH 9 0
BBX 5 16 2 -4
BITMAP
18
20
20
20
20
20
20
C0
20
20
20
20
20
20
20
18
ENDCHAR
STARTCHAR bar
ENCODING 124
SWIDTH 200 0
DWIDTH 4 0
BBX 1 16 1 -4
BITMAP
80
80
80
80
80
80
80
80
80
80
80
80
80
80
80
80
ENDCHAR
STARTCHAR braceright
ENCODING 125
SWIDTH 480 0
DWIDTH 9 0
BBX 5 16 2 -4
BITMAP
C0
20
20
20
20
20
20
18
20
20
20
20
20
20
20
C0
ENDCHAR
STARTCHAR asciitilde
ENCODING 126
SWIDTH 549 0
DWIDTH 10 0
BBX 8 2 0 3
BITMAP
71
8E
ENDCHAR
STARTCHAR uni007F
ENCODING 127
SWIDTH 250 0
DWIDTH 255 0
BBX 1 1 254 -6
BITMAP
00
ENDCHAR
STARTCHAR degree
ENCODING 161
SWIDTH 620 0
DWIDTH 10 0
BBX 9 9 0 0
BITMAP
C700
2980
3180
3000
3000
3000
3000
3000
3000
ENDCHAR
STARTCHAR cent
ENCODING 162
SWIDTH 247 0
DWIDTH 5 0
BBX 3 3 1 9
BITMAP
20
40
80
ENDCHAR
STARTCHAR sterling
ENCODING 163
SWIDTH 549 0
DWIDTH 10 0
BBX 8 9 0 0
BITMAP
03
0C
30
C0
30
0C
03
00
FF
ENDCHAR
STARTCHAR section
ENCODING 164
SWIDTH 167 0
DWIDTH 3 0
BBX 2 12 0 0
BITMAP
40
40
40
40
40
40
80
80
80
80
80
80
ENDCHAR
STARTCHAR bullet
ENCODING 165
SWIDTH 713 0
DWIDTH 13 0
BBX 12 5 0 2
BITMAP
70E0
8910
8610
8910
70E0
ENDCHAR
STARTCHAR paragraph
ENCODING 166
SWIDTH 500 0
DWIDTH 9 0
BBX 8 16 0 -4
BITMAP
07
0B
08
08
3E
08
08
08
08
08
08
08
08
08
D0
E0
ENDCHAR
STARTCHAR germandbls
ENCODING 167
SWIDTH 753 0
DWIDTH 14 0
BBX 12 11 1 -1
BITMAP
0600
0F00
0F00
0F00
76E0
FFF0
FFF0
FFF0
76E0
0600
0F00
ENDCHAR
STARTCHAR registered
ENCODING 168
SWIDTH 753 0
DWIDTH 14 0
BBX 10 10 2 0
BITMAP
0C00
1E00
3F00
7F80
FFC0
FFC0
7F80
3F00
1E00
0C00
ENDCHAR
STARTCHAR copyright
ENCODING 169
SWIDTH 753 0
DWIDTH 14 0
BBX 11 10 1 0
BITMAP
71C0
FBE0
FFE0
FFE0
FFE0
7FC0
3F80
1F00
0E00
0400
ENDCHAR
STARTCHAR trademark
ENCODING 170
SWIDTH 753 0
DWIDTH 14 0
BBX 10 11 2 -1
BITMAP
0C00
1E00
3F00
7F80
FFC0
FFC0
FFC0
6D80
0C00
0C00
1E00
ENDCHAR
STARTCHAR acute
ENCODING 171
SWIDTH 1042 0
DWIDTH 19 0
BBX 17 9 1 0
BITMAP
080800
100400
200200
400100
FFFF80
400100
200200
100400
080800
ENDCHAR
STARTCHAR dieresis
ENCODING 172
SWIDTH 987 0
DWIDTH 18 0
BBX 16 9 2 0
BITMAP
0800
1000
2000
4000
FFFF
4000
2000
1000
0800
ENDCHAR
STARTCHAR notequal
ENCODING 173
SWIDTH 603 0
DWIDTH 10 0
BBX 9 11 0 0
BITMAP
0800
1C00
2A00
4900
8880
0800
0800
0800
0800
0800
0800
ENDCHAR
STARTCHAR AE
ENCODING 174
SWIDTH 987 0
DWIDTH 18 0
BBX 16 9 0 0
BITMAP
0010
0008
0004
0002
FFFF
0002
0004
0008
0010
ENDCHAR
STARTCHAR Oslash
ENCODING 175
SWIDTH 603 0
DWIDTH 10 0
BBX 9 15 0 0
BITMAP
0800
0800
0800
0800
0800
0800
0800
0800
0800
0800
8880
4900
2A00
1C00
0800
ENDCHAR
STARTCHAR infinity
ENCODING 176
SWIDTH 400 0
DWIDTH 8 0
BBX 4 4 1 8
BITMAP
60
90
90
60
ENDCHAR
STARTCHAR plusminus
ENCODING 177
SWIDTH 549 0
DWIDTH 10 0
BBX 9 10 0 0
BITMAP
0800
0800
0800
0800
FF80
0800
0800
0800
0000
FF80
ENDCHAR
STARTCHAR lessequal
ENCODING 178
SWIDTH 411 0
DWIDTH 8 0
BBX 6 3 0 9
BITMAP
24
48
90
ENDCHAR
STARTCHAR greaterequal
ENCODING 179
SWIDTH 549 0
DWIDTH 10 0
BBX 8 9 1 0
BITMAP
C0
30
0C
03
0C
30
C0
00
FF
ENDCHAR
STARTCHAR yen
ENCODING 180
SWIDTH 549 0
DWIDTH 10 0
BBX 9 9 0 0
BITMAP
8080
4100
2200
1400
0800
1400
2200
4100
8080
ENDCHAR
STARTCHAR mu
ENCODING 181
SWIDTH 713 0
DWIDTH 13 0
BBX 10 5 1 2
BITMAP
71C0
8A00
8400
8A00
71C0
ENDCHAR
STARTCHAR partialdiff
ENCODING 182
SWIDTH 494 0
DWIDTH 8 0
BBX 7 13 0 0
BITMAP
38
4C
04
06
06
3E
66
C6
C6
C6
C4
4C
38
ENDCHAR
STARTCHAR summation
ENCODING 183
SWIDTH 460 0
DWIDTH 8 0
BBX 5 5 1 2
BITMAP
70
F8
F8
F8
70
ENDCHAR
STARTCHAR product
ENCODING 184
SWIDTH 549 0
DWIDTH 10 0
BBX 8 7 1 1
BITMAP
18
18
00
FF
00
18
18
ENDCHAR
STARTCHAR pi
ENCODING 185
SWIDTH 549 0
DWIDTH 10 0
BBX 9 8 0 1
BITMAP
0080
0100
FF80
0400
0800
FF80
2000
4000
ENDCHAR
STARTCHAR integral
ENCODING 186
SWIDTH 549 0
DWIDTH 10 0
BBX 9 7 0 1
BITMAP
FF80
0000
0000
FF80
0000
0000
FF80
ENDCHAR
STARTCHAR ordfeminine
ENCODING 187
SWIDTH 549 0
DWIDTH 10 0
BBX 8 5 1 2
BITMAP
71
8E
00
71
8E
ENDCHAR
STARTCHAR ordmasculine
ENCODING 188
SWIDTH 1000 0
DWIDTH 18 0
BBX 14 2 2 0
BITMAP
C30C
C30C
ENDCHAR
STARTCHAR Omega
ENCODING 189
SWIDTH 603 0
DWIDTH 10 0
BBX 1 22 4 -5
BITMAP
80
80
80
80
80
80
80
80
80
80
80
80
80
80
80
80
80
80
80
80
80
80
ENDCHAR
STARTCHAR ae
ENCODING 190
SWIDTH 1000 0
DWIDTH 18 0
BBX 18 1 0 4
BITMAP
FFFFC0
ENDCHAR
STARTCHAR oslash
ENCODING 191
SWIDTH 658 0
DWIDTH 12 0
BBX 11 12 0 0
BITMAP
0020
0020
0020
0020
0020
0020
0020
2020
6020
FFE0
6000
2000
ENDCHAR
STARTCHAR questiondown
ENCODING 192
SWIDTH 823 0
DWIDTH 15 0
BBX 9 12 3 0
BITMAP
4200
C380
E380
F180
7A00
3C00
5E00
CF00
C780
E380
7180
F100
ENDCHAR
STARTCHAR exclamdown
ENCODING 193
SWIDTH 686 0
DWIDTH 13 0
BBX 10 13 1 0
BITMAP
1E00
7F80
C3C0
8180
8100
4300
3300
0380
01C0
00C0
60C0
F180
1E00
ENDCHAR
STARTCHAR logicalnot
ENCODING 194
SWIDTH 795 0
DWIDTH 14 0
BBX 12 13 1 0
BITMAP
78E0
8D30
8630
C630
66C0
67C0
06E0
0660
0660
0660
0460
3C70
7820
ENDCHAR
STARTCHAR radical
ENCODING 195
SWIDTH 987 0
DWIDTH 18 0
BBX 14 13 2 -4
BITMAP
1078
219C
620C
640C
68CC
718C
3108
3910
5CE0
8C00
8C00
8800
7000
ENDCHAR
STARTCHAR florin
ENCODING 196
SWIDTH 768 0
DWIDTH 14 0
BBX 11 11 1 0
BITMAP
1F00
60C0
4040
9120
8A20
8420
8A20
9120
4040
60C0
1F00
ENDCHAR
STARTCHAR approxequal
ENCODING 197
SWIDTH 768 0
DWIDTH 14 0
BBX 11 11 1 0
BITMAP
1F00
60C0
4440
8420
8420
BFA0
8420
8420
4440
60C0
1F00
ENDCHAR
STARTCHAR Delta
ENCODING 198
SWIDTH 823 0
DWIDTH 15 0
BBX 12 12 1 0
BITMAP
0F10
30E0
6060
40A0
8110
8210
8410
8810
5020
6060
70C0
8F00
ENDCHAR
STARTCHAR guillemotleft
ENCODING 199
SWIDTH 768 0
DWIDTH 14 0
BBX 12 9 1 0
BITMAP
0F00
30C0
6060
4020
8010
8010
8010
8010
8010
ENDCHAR
STARTCHAR guillemotright
ENCODING 200
SWIDTH 768 0
DWIDTH 14 0
BBX 12 9 1 0
BITMAP
8010
8010
8010
8010
8010
4020
6060
30C0
0F00
ENDCHAR
STARTCHAR ellipsis
ENCODING 201
SWIDTH 713 0
DWIDTH 13 0
BBX 11 9 1 0
BITMAP
FF00
00C0
0040
0020
0020
0020
0040
00C0
FF00
ENDCHAR
STARTCHAR uni00A0
ENCODING 202
SWIDTH 713 0
DWIDTH 13 0
BBX 12 11 0 -2
BITMAP
FF80
0060
0020
0010
0010
0010
0020
0060
FF80
0000
FFF0
ENDCHAR
STARTCHAR Agrave
ENCODING 203
SWIDTH 713 0
DWIDTH 13 0
BBX 11 11 1 -1
BITMAP
0040
1FE0
6080
4100
8100
8200
8200
4400
6400
1FE0
0800
ENDCHAR
STARTCHAR Atilde
ENCODING 204
SWIDTH 713 0
DWIDTH 13 0
BBX 11 9 1 0
BITMAP
1FE0
6000
4000
8000
8000
8000
4000
6000
1FE0
ENDCHAR
STARTCHAR Otilde
ENCODING 205
SWIDTH 713 0
DWIDTH 13 0
BBX 11 11 1 -2
BITMAP
1FE0
6000
4000
8000
8000
8000
4000
6000
1FE0
0000
FFE0
ENDCHAR
STARTCHAR OE
ENCODING 206
SWIDTH 713 0
DWIDTH 13 0
BBX 8 9 2 0
BITMAP
3F
40
80
80
FF
80
80
40
3F
ENDCHAR
STARTCHAR oe
ENCODING 207
SWIDTH 713 0
DWIDTH 13 0
BBX 8 13 2 -2
BITMAP
02
02
3F
44
84
88
FF
90
90
60
3F
40
40
ENDCHAR
STARTCHAR endash
ENCODING 208
SWIDTH 768 0
DWIDTH 14 0
BBX 12 12 1 0
BITMAP
0010
0020
0040
0080
0100
0200
0400
0800
1000
2000
4000
FFF0
ENDCHAR
STARTCHAR emdash
ENCODING 209
SWIDTH 713 0
DWIDTH 13 0
BBX 11 12 1 0
BITMAP
FFE0
C020
6040
6040
3080
3080
1900
1900
0E00
0E00
0400
0400
ENDCHAR
STARTCHAR quotedblleft
ENCODING 210
SWIDTH 790 0
DWIDTH 14 0
BBX 12 12 1 0
BITMAP
0F00
30C0
6060
5E20
8910
8910
8E10
8910
5CA0
6060
30C0
0F00
ENDCHAR
STARTCHAR quotedblright
ENCODING 211
SWIDTH 790 0
DWIDTH 14 0
BBX 12 12 1 0
BITMAP
0F00
30C0
6060
4720
8910
9010
9010
8910
4620
6060
30C0
0F00
ENDCHAR
STARTCHAR quoteleft
ENCODING 212
SWIDTH 890 0
DWIDTH 16 0
BBX 15 7 0 5
BITMAP
FF8E
958C
1154
1154
1124
1124
3B8E
ENDCHAR
STARTCHAR quoteright
ENCODING 213
SWIDTH 823 0
DWIDTH 15 0
BBX 12 15 1 -1
BITMAP
FFF0
6060
6060
6060
6060
6060
6060
6060
6060
6060
6060
6060
6060
6060
F0F0
ENDCHAR
STARTCHAR divide
ENCODING 214
SWIDTH 549 0
DWIDTH 10 0
BBX 10 14 0 0
BITMAP
0040
0040
0080
0080
0100
0100
0200
0200
C400
4400
2800
2800
1000
1000
ENDCHAR
STARTCHAR lozenge
ENCODING 215
SWIDTH 250 0
DWIDTH 10 0
BBX 2 2 4 4
BITMAP
C0
C0
ENDCHAR
STARTCHAR ydieresis
ENCODING 216
SWIDTH 713 0
DWIDTH 13 0
BBX 10 4 1 1
BITMAP
FFC0
0040
0040
0040
ENDCHAR
STARTCHAR Ydieresis
ENCODING 217
SWIDTH 603 0
DWIDTH 11 0
BBX 7 8 2 0
BITMAP
10
10
28
28
44
44
82
82
ENDCHAR
STARTCHAR fraction
ENCODING 218
SWIDTH 603 0
DWIDTH 11 0
BBX 7 8 2 0
BITMAP
82
82
44
44
28
28
10
10
ENDCHAR
STARTCHAR currency
ENCODING 219
SWIDTH 1042 0
DWIDTH 19 0
BBX 17 9 1 0
BITMAP
080800
100400
3FFE00
400100
800080
400100
3FFE00
100400
080800
ENDCHAR
STARTCHAR guilsinglleft
ENCODING 220
SWIDTH 987 0
DWIDTH 18 0
BBX 16 9 1 0
BITMAP
0800
1000
3FFF
4000
8000
4000
3FFF
1000
0800
ENDCHAR
STARTCHAR guilsinglright
ENCODING 221
SWIDTH 603 0
DWIDTH 11 0
BBX 9 17 1 0
BITMAP
0800
1400
2200
6300
A280
2200
2200
2200
2200
2200
2200
2200
2200
2200
2200
2200
2200
ENDCHAR
STARTCHAR uniFB01
ENCODING 222
SWIDTH 987 0
DWIDTH 18 0
BBX 17 9 0 0
BITMAP
000800
000400
FFFE00
000100
000080
000100
FFFE00
000400
000800
ENDCHAR
STARTCHAR uniFB02
ENCODING 223
SWIDTH 603 0
DWIDTH 11 0
BBX 9 17 1 0
BITMAP
2200
2200
2200
2200
2200
2200
2200
2200
2200
2200
2200
2200
A280
6300
2200
1400
0800
ENDCHAR
STARTCHAR daggerdbl
ENCODING 224
SWIDTH 494 0
DWIDTH 9 0
BBX 7 12 1 0
BITMAP
10
10
28
28
44
82
82
44
28
28
10
10
ENDCHAR
STARTCHAR periodcentered
ENCODING 225
SWIDTH 329 0
DWIDTH 6 0
BBX 5 17 0 -4
BITMAP
08
08
10
10
20
20
40
40
80
40
40
20
20
10
10
08
08
ENDCHAR
STARTCHAR quotesinglbase
ENCODING 226
SWIDTH 790 0
DWIDTH 14 0
BBX 12 12 1 0
BITMAP
0F00
30C0
6060
4E20
8910
8910
8E10
8910
48A0
6060
30C0
0F00
ENDCHAR
STARTCHAR quotedblbase
ENCODING 227
SWIDTH 790 0
DWIDTH 14 0
BBX 12 12 1 0
BITMAP
0F00
30C0
6060
4620
8910
9010
9010
8910
4620
6060
30C0
0F00
ENDCHAR
STARTCHAR perthousand
ENCODING 228
SWIDTH 786 0
DWIDTH 14 0
BBX 13 7 0 5
BITMAP
FA08
2318
2318
22A8
22A8
2248
2248
ENDCHAR
STARTCHAR Acircumflex
ENCODING 229
SWIDTH 713 0
DWIDTH 13 0
BBX 11 14 1 -1
BITMAP
FFC0
6020
3000
1800
0C00
0600
0300
0200
0400
0800
1000
2020
7FC0
FF80
ENDCHAR
STARTCHAR Ecircumflex
ENCODING 230
SWIDTH 384 0
DWIDTH 7 0
BBX 6 21 1 -6
BITMAP
04
08
10
10
20
20
20
40
40
40
40
80
80
80
80
80
80
80
80
80
80
ENDCHAR
STARTCHAR Aacute
ENCODING 231
SWIDTH 384 0
DWIDTH 7 0
BBX 1 24 1 -6
BITMAP
80
80
80
80
80
80
80
80
80
80
80
80
80
80
80
80
80
80
80
80
80
80
80
80
ENDCHAR
STARTCHAR Edieresis
ENCODING 232
SWIDTH 384 0
DWIDTH 7 0
BBX 6 23 1 -5
BITMAP
80
80
80
80
80
80
80
80
80
80
80
80
40
40
40
40
20
20
20
10
10
08
04
ENDCHAR
STARTCHAR Egrave
ENCODING 233
SWIDTH 384 0
DWIDTH 7 0
BBX 6 23 0 -6
BITMAP
FC
80
80
80
80
80
80
80
80
80
80
80
80
80
80
80
80
80
80
80
80
80
80
ENDCHAR
STARTCHAR Iacute
ENCODING 234
SWIDTH 384 0
DWIDTH 7 0
BBX 1 24 0 -6
BITMAP
80
80
80
80
80
80
80
80
80
80
80
80
80
80
80
80
80
80
80
80
80
80
80
80
ENDCHAR
STARTCHAR Icircumflex
ENCODING 235
SWIDTH 384 0
DWIDTH 7 0
BBX 6 21 0 -3
BITMAP
80
80
80
80
80
80
80
80
80
80
80
80
80
80
80
80
80
80
80
80
FC
ENDCHAR
STARTCHAR Idieresis
ENCODING 236
SWIDTH 494 0
DWIDTH 9 0
BBX 4 23 3 -6
BITMAP
30
40
80
80
80
80
80
80
80
80
80
80
80
80
80
80
80
80
80
80
80
80
80
ENDCHAR
STARTCHAR Igrave
ENCODING 237
SWIDTH 494 0
DWIDTH 9 0
BBX 4 24 0 -6
BITMAP
10
10
10
10
10
10
10
10
10
10
20
C0
30
10
10
10
10
10
10
10
10
10
10
10
ENDCHAR
STARTCHAR Oacute
ENCODING 238
SWIDTH 494 0
DWIDTH 9 0
BBX 4 20 3 -2
BITMAP
80
80
80
80
80
80
80
80
80
80
80
80
80
80
80
80
80
80
40
30
ENDCHAR
STARTCHAR Ocircumflex
ENCODING 239
SWIDTH 494 0
DWIDTH 9 0
BBX 1 24 3 -6
BITMAP
80
80
80
80
80
80
80
80
80
80
80
80
80
80
80
80
80
80
80
80
80
80
80
80
ENDCHAR
STARTCHAR Ograve
ENCODING 241
SWIDTH 329 0
DWIDTH 6 0
BBX 5 17 0 -4
BITMAP
80
80
40
40
20
20
10
10
08
10
10
20
20
40
40
80
80
ENDCHAR
STARTCHAR Uacute
ENCODING 242
SWIDTH 274 0
DWIDTH 5 0
BBX 5 19 0 -2
BITMAP
18
28
20
20
20
20
20
20
20
20
20
20
20
20
20
20
20
A0
C0
ENDCHAR
STARTCHAR Ucircumflex
ENCODING 243
SWIDTH 686 0
DWIDTH 12 0
BBX 5 23 6 -6
BITMAP
38
58
80
80
80
80
80
80
80
80
80
80
80
80
80
80
80
80
80
80
80
80
80
ENDCHAR
STARTCHAR Ugrave
ENCODING 244
SWIDTH 686 0
DWIDTH 12 0
BBX 1 24 6 -6
BITMAP
80
80
80
80
80
80
80
80
80
80
80
80
80
80
80
80
80
80
80
80
80
80
80
80
ENDCHAR
STARTCHAR dotlessi
ENCODING 245
SWIDTH 686 0
DWIDTH 12 0
BBX 5 19 2 -1
BITMAP
08
08
08
08
08
08
08
08
08
08
08
08
08
08
08
08
08
D0
E0
ENDCHAR
STARTCHAR circumflex
ENCODING 246
SWIDTH 384 0
DWIDTH 7 0
BBX 6 21 0 -6
BITMAP
80
40
20
20
10
10
10
08
08
08
08
04
04
04
04
04
04
04
04
04
04
ENDCHAR
STARTCHAR tilde
ENCODING 247
SWIDTH 384 0
DWIDTH 7 0
BBX 1 24 5 -6
BITMAP
80
80
80
80
80
80
80
80
80
80
80
80
80
80
80
80
80
80
80
80
80
80
80
80
ENDCHAR
STARTCHAR macron
ENCODING 248
SWIDTH 384 0
DWIDTH 7 0
BBX 6 23 0 -5
BITMAP
04
04
04
04
04
04
04
04
04
04
04
04
08
08
08
08
10
10
10
20
20
40
80
ENDCHAR
STARTCHAR breve
ENCODING 249
SWIDTH 384 0
DWIDTH 7 0
BBX 6 23 0 -6
BITMAP
FC
04
04
04
04
04
04
04
04
04
04
04
04
04
04
04
04
04
04
04
04
04
04
ENDCHAR
STARTCHAR dotaccent
ENCODING 250
SWIDTH 384 0
DWIDTH 7 0
BBX 1 24 5 -6
BITMAP
80
80
80
80
80
80
80
80
80
80
80
80
80
80
80
80
80
80
80
80
80
80
80
80
ENDCHAR
STARTCHAR ring
ENCODING 251
SWIDTH 384 0
DWIDTH 7 0
BBX 6 21 0 -3
BITMAP
04
04
04
04
04
04
04
04
04
04
04
04
04
04
04
04
04
04
04
04
FC
ENDCHAR
STARTCHAR cedilla
ENCODING 252
SWIDTH 494 0
DWIDTH 9 0
BBX 4 23 0 -6
BITMAP
C0
20
10
10
10
10
10
10
10
10
10
10
10
10
10
10
10
10
10
10
10
10
10
ENDCHAR
STARTCHAR hungarumlaut
ENCODING 253
SWIDTH 494 0
DWIDTH 9 0
BBX 4 24 3 -6
BITMAP
80
80
80
80
80
80
80
80
80
80
C0
30
C0
80
80
80
80
80
80
80
80
80
80
80
ENDCHAR
STARTCHAR ogonek
ENCODING 254
SWIDTH 494 0
DWIDTH 9 0
BBX 4 20 0 -2
BITMAP
10
10
10
10
10
10
10
10
10
10
10
10
10
10
10
10
10
10
20
C0
ENDCHAR
STARTCHAR caron
ENCODING 255
SWIDTH 250 0
DWIDTH 14 0
BBX 12 14 1 0
BITMAP
01C0
0380
0300
3AE0
7DF0
FFE0
FFC0
FFC0
FFC0
FFE0
FFF0
7FF0
3FE0
1DC0
ENDCHAR
ENDFONT
